<svg version="1.2" xmlns="http://www.w3.org/2000/svg" viewBox="0 0 195 89" width="195" height="89">
	<title>logotipo_vector</title>
	<style>
		.s0 { fill: #ec6906 } 
		.s1 { fill: #007b6f } 
		.s2 { fill: #fcbf00 } 
	</style>
	<g id="g1">
		<path id="path1" class="s0" d="m22.9 24.7c-2.4 2.1-6 1.1-8.9 0.7-1.2-0.1-0.7-1.9 0.5-1.7 2.2 0.3 5.1 1 7-0.3q-1.8-1.9-3.8-3.7 0 0-0.1-0.1c-1.2 0.6-2.7 0.4-3.7-0.6-1.2-1.3-1.2-3.3 0.1-4.6 1.3-1.2 3.3-1.1 4.5 0.2 1 1 1.1 2.6 0.4 3.8q0.1 0 0.1 0 1.9 1.8 3.8 3.6c1.2-2.1 1.3-4.8 1-7.1-0.1-1.2 1.7-1.2 1.9 0 0.3 2.7 0 6-1.6 8.4 4.2 4.1 8.2 8.4 12.4 12.5v-16.5c0-9.7-7.9-17.6-17.6-17.6-9.7 0-17.6 7.9-17.6 17.6 0 9.7 7.9 17.6 17.6 17.6h16.1c-4.1-4-8-8.1-12.1-12.2z"/>
		<path id="path2" class="s1" d="m56.4 1.7c-9.7 0-17.6 7.9-17.6 17.6v16.8c3.5-4.4 7.9-7.9 12.1-11.7q2.7-2.6 5.4-5.2c0.8-0.9 2.1 0.4 1.3 1.3-1.6 1.7-3.3 3.3-5.1 4.9q-5.9 5.8-11.8 11.5h15.7c9.7 0 17.6-7.9 17.6-17.6 0-9.7-7.9-17.6-17.6-17.6z"/>
		<path id="path3" class="s2" d="m25.3 52.4c-3.1 3.8-6 7.6-10.6 9.6-1.1 0.5-2-1.1-0.9-1.6 3.4-1.4 5.8-4 8.1-6.7q-5.2-0.6-10.5-0.9c-1.2-0.1-1.2-1.9 0-1.8q6 0.2 11.9 1 0.8-1 1.7-2.1c3.3-3.8 6.8-7.4 10.4-10.9h-16.5c-9.7 0-17.6 7.9-17.6 17.6 0 9.7 7.9 17.6 17.6 17.6 9.7 0 17.6-7.9 17.6-17.6v-16.1c-3.9 3.8-7.7 7.8-11.2 11.9z"/>
		<path id="path4" class="s2" d="m61.1 16.1c0.9 1.5 0.4 3.5-1.1 4.4-1.6 0.9-3.5 0.4-4.4-1.1-0.9-1.5-0.5-3.5 1.1-4.4 1.5-0.9 3.4-0.4 4.4 1.1z"/>
		<path id="path5" class="s1" d="m9.4 80.5q-0.3-0.4-0.8-0.7-0.6-0.2-1.1-0.2-0.7 0-1.2 0.3-0.6 0.2-0.9 0.7-0.4 0.4-0.7 1-0.2 0.6-0.2 1.2 0 0.7 0.2 1.3 0.3 0.6 0.6 1 0.4 0.5 1 0.7 0.5 0.3 1.2 0.3 0.7 0 1.3-0.3 0.5-0.3 0.9-0.8l0.7 0.6q-0.5 0.7-1.2 1-0.8 0.3-1.7 0.3-0.9 0-1.6-0.3-0.7-0.3-1.2-0.8-0.6-0.6-0.9-1.3-0.3-0.8-0.3-1.7 0-0.8 0.3-1.6 0.3-0.7 0.8-1.3 0.6-0.5 1.3-0.9 0.7-0.3 1.6-0.3 0.8 0 1.5 0.3 0.7 0.3 1.2 1"/>
		<path id="path6" class="s1" d="m16.2 85.8q-0.5 0.6-1 0.8-0.6 0.2-1.3 0.2-0.6 0-1.1-0.2-0.5-0.2-0.8-0.5-0.4-0.4-0.5-0.9-0.2-0.5-0.2-1.1 0-0.6 0.2-1.1 0.2-0.5 0.5-0.8 0.4-0.4 0.9-0.6 0.4-0.2 1-0.2 0.6 0 1 0.2 0.5 0.2 0.8 0.5 0.3 0.4 0.5 0.9 0.2 0.5 0.2 1.1v0.3h-4.2q0 0.3 0.2 0.6 0.1 0.3 0.3 0.6 0.2 0.2 0.5 0.3 0.3 0.2 0.7 0.2 0.5 0 0.9-0.2 0.4-0.2 0.7-0.6m-0.1-1.6q0-0.7-0.4-1.1-0.4-0.4-1.1-0.4-0.7 0-1.2 0.4-0.4 0.4-0.5 1.1z"/>
		<path id="path7" class="s1" d="m17.7 82.8q0-0.4 0-0.7-0.1-0.3-0.1-0.5h0.9q0 0.2 0 0.4 0 0.2 0 0.4 0.1-0.2 0.2-0.3 0.2-0.2 0.4-0.4 0.2-0.1 0.5-0.2 0.3-0.1 0.6-0.1 0.5 0 0.9 0.2 0.4 0.1 0.6 0.4 0.2 0.3 0.4 0.7 0.1 0.4 0.1 0.8v3.2h-0.9v-3.1q0-0.6-0.3-1-0.3-0.4-0.9-0.4-0.4 0-0.7 0.2-0.3 0.1-0.5 0.4-0.2 0.2-0.3 0.6-0.1 0.4-0.1 0.8v2.5h-0.8"/>
		<path id="path8" class="s1" d="m26.6 82.3h-1.5v2.6q0 0.2 0 0.4 0 0.2 0.1 0.4 0.1 0.2 0.2 0.3 0.2 0.1 0.5 0.1 0.2 0 0.4-0.1 0.2 0 0.3-0.1l0.1 0.8q-0.3 0.1-0.5 0.1-0.3 0-0.5 0-0.5 0-0.8-0.1-0.3-0.1-0.4-0.3-0.2-0.2-0.2-0.6-0.1-0.3-0.1-0.7v-2.8h-1.1v-0.7h1.1v-1.5h0.9v1.5h1.5"/>
		<path id="path9" class="s1" d="m27.7 82.8q0-0.4 0-0.7-0.1-0.3-0.1-0.5h0.8q0 0.2 0.1 0.4 0 0.2 0 0.4 0.1-0.2 0.2-0.3 0.2-0.2 0.4-0.4 0.2-0.1 0.5-0.2 0.3-0.1 0.6-0.1 0.1 0 0.2 0 0.1 0.1 0.2 0.1l-0.1 0.9q-0.2-0.1-0.5-0.1-0.8 0-1.1 0.5-0.4 0.5-0.4 1.4v2.5h-0.8"/>
		<path id="path10" class="s1" d="m31.1 84.1q0-0.6 0.2-1.1 0.2-0.5 0.5-0.8 0.4-0.4 0.9-0.6 0.5-0.2 1.1-0.2 0.6 0 1.1 0.2 0.5 0.2 0.9 0.6 0.3 0.3 0.5 0.8 0.3 0.5 0.3 1.1 0 0.6-0.3 1.1-0.2 0.5-0.5 0.9-0.4 0.4-0.9 0.6-0.5 0.1-1.1 0.1-0.6 0-1.1-0.1-0.5-0.2-0.9-0.6-0.3-0.4-0.5-0.9-0.2-0.5-0.2-1.1zm0.9 0q0 0.5 0.1 0.8 0.1 0.3 0.4 0.6 0.2 0.3 0.6 0.4 0.3 0.2 0.7 0.2 0.4 0 0.8-0.2 0.3-0.1 0.5-0.4 0.3-0.3 0.4-0.6 0.1-0.3 0.1-0.8 0-0.4-0.1-0.7-0.1-0.4-0.4-0.6-0.2-0.3-0.5-0.4-0.4-0.2-0.8-0.2-0.4 0-0.7 0.2-0.4 0.1-0.6 0.4-0.3 0.2-0.4 0.6-0.1 0.3-0.1 0.7z"/>
		<path id="path11" class="s1" d="m45.2 85.8q-0.2 0.4-0.8 0.7-0.5 0.3-1.2 0.3-0.5 0-1-0.2-0.5-0.2-0.8-0.5-0.4-0.4-0.6-0.9-0.2-0.5-0.2-1.1 0-0.5 0.2-1 0.2-0.5 0.6-0.9 0.3-0.4 0.8-0.6 0.5-0.2 1.2-0.2 0.5 0 1 0.3 0.5 0.2 0.8 0.6v-3.9h0.9v8.3h-0.9m0-2.6q0-0.4-0.1-0.7-0.1-0.4-0.4-0.6-0.2-0.3-0.5-0.4-0.4-0.2-0.8-0.2-0.4 0-0.8 0.2-0.3 0.1-0.5 0.4-0.3 0.2-0.4 0.6-0.1 0.3-0.1 0.7 0 0.5 0.1 0.8 0.1 0.3 0.4 0.6 0.2 0.3 0.5 0.4 0.4 0.2 0.8 0.2 0.4 0 0.8-0.2 0.3-0.1 0.5-0.4 0.3-0.3 0.4-0.6 0.1-0.3 0.1-0.8z"/>
		<path id="path12" class="s1" d="m52.3 85.8q-0.5 0.6-1 0.8-0.6 0.2-1.3 0.2-0.6 0-1.1-0.2-0.5-0.2-0.8-0.5-0.4-0.4-0.5-0.9-0.2-0.5-0.2-1.1 0-0.6 0.2-1.1 0.2-0.5 0.5-0.8 0.4-0.4 0.9-0.6 0.4-0.2 1-0.2 0.5 0 1 0.2 0.5 0.2 0.8 0.5 0.3 0.4 0.5 0.9 0.2 0.5 0.2 1.1v0.3h-4.2q0 0.3 0.2 0.6 0.1 0.3 0.3 0.6 0.2 0.2 0.5 0.3 0.3 0.2 0.7 0.2 0.5 0 0.9-0.2 0.4-0.2 0.7-0.6m-0.1-1.6q0-0.7-0.4-1.1-0.4-0.4-1.1-0.4-0.7 0-1.2 0.4-0.4 0.4-0.5 1.1z"/>
		<path id="path13" class="s1" d="m62.2 79.8h-2.6v6.9h-0.9v-6.9h-2.6v-0.9h6.1"/>
		<path id="path14" class="s1" d="m66.5 85.8q-0.4 0.6-1 0.8-0.5 0.2-1.3 0.2-0.6 0-1-0.2-0.5-0.2-0.9-0.5-0.3-0.4-0.5-0.9-0.2-0.5-0.2-1.1 0-0.6 0.2-1.1 0.2-0.5 0.6-0.8 0.3-0.4 0.8-0.6 0.5-0.2 1.1-0.2 0.5 0 1 0.2 0.4 0.2 0.7 0.5 0.4 0.4 0.5 0.9 0.2 0.5 0.2 1.1v0.3h-4.1q0 0.3 0.1 0.6 0.2 0.3 0.4 0.6 0.2 0.2 0.5 0.3 0.3 0.2 0.6 0.2 0.6 0 1-0.2 0.4-0.2 0.7-0.6m-0.1-1.6q0-0.7-0.4-1.1-0.4-0.4-1.2-0.4-0.7 0-1.1 0.4-0.4 0.4-0.5 1.1z"/>
		<path id="path15" class="s1" d="m68.1 82.8q0-0.4-0.1-0.7 0-0.3 0-0.5h0.8q0 0.2 0 0.4 0 0.2 0 0.4h0.1q0.1-0.2 0.2-0.3 0.2-0.2 0.4-0.4 0.2-0.1 0.5-0.2 0.3-0.1 0.6-0.1 0.1 0 0.2 0 0 0.1 0.1 0.1v0.9q-0.2-0.1-0.5-0.1-0.8 0-1.1 0.5-0.4 0.5-0.4 1.4v2.5h-0.8"/>
		<path id="path16" class="s1" d="m71.9 82.2q0.4-0.4 0.9-0.6 0.5-0.2 1.1-0.2 1.2 0 1.7 0.6 0.5 0.5 0.5 1.6v2.2q0 0.2 0 0.5 0 0.2 0 0.4h-0.8q0-0.2 0-0.4 0-0.2 0-0.4h-0.1q-0.2 0.4-0.6 0.7-0.5 0.2-1.1 0.2-0.4 0-0.7-0.1-0.3 0-0.6-0.2-0.3-0.2-0.4-0.5-0.2-0.3-0.2-0.7 0-0.6 0.4-1 0.3-0.3 0.8-0.5 0.5-0.2 1-0.2 0.6-0.1 1.1-0.1h0.3v-0.1q0-0.6-0.3-0.9-0.4-0.3-1-0.3-0.4 0-0.8 0.2-0.4 0.1-0.7 0.4m1.9 1.4q-0.8 0-1.3 0.3-0.4 0.2-0.4 0.7 0 0.5 0.3 0.7 0.3 0.2 0.8 0.2 0.4 0 0.6-0.1 0.3-0.1 0.5-0.3 0.2-0.2 0.3-0.5 0.1-0.3 0.1-0.6v-0.4z"/>
		<path id="path17" class="s1" d="m77.6 81.6h0.9v0.7q0.3-0.4 0.8-0.6 0.5-0.3 1-0.3 0.6 0 1.1 0.2 0.5 0.2 0.9 0.6 0.3 0.4 0.5 0.9 0.2 0.5 0.2 1 0 0.6-0.2 1.1-0.2 0.5-0.5 0.9-0.4 0.3-0.8 0.5-0.5 0.2-1 0.2-0.7 0-1.3-0.3-0.5-0.3-0.7-0.7v3.4h-0.9m0.9-5.1q0 0.5 0.1 0.8 0.1 0.3 0.3 0.6 0.3 0.3 0.6 0.4 0.4 0.2 0.8 0.2 0.4 0 0.7-0.2 0.4-0.1 0.6-0.4 0.3-0.3 0.4-0.6 0.1-0.3 0.1-0.8 0-0.4-0.1-0.7-0.1-0.4-0.4-0.6-0.2-0.3-0.6-0.4-0.3-0.2-0.7-0.2-0.4 0-0.8 0.2-0.3 0.1-0.6 0.4-0.2 0.2-0.3 0.6-0.1 0.3-0.1 0.7z"/>
		<path id="path18" class="s1" d="m84.4 81.6h0.9v5.1h-0.9zm-0.2-2q0-0.3 0.2-0.4 0.2-0.2 0.5-0.2 0.2 0 0.4 0.2 0.2 0.1 0.2 0.4 0 0.3-0.2 0.5-0.2 0.1-0.4 0.1-0.3 0-0.5-0.1-0.2-0.2-0.2-0.5z"/>
		<path id="path19" class="s1" d="m86.9 82.2q0.4-0.4 1-0.6 0.5-0.2 1.1-0.2 1.1 0 1.6 0.6 0.5 0.5 0.5 1.6v2.2q0 0.2 0.1 0.5 0 0.2 0 0.4h-0.8q-0.1-0.2-0.1-0.4 0-0.2 0-0.4-0.2 0.4-0.7 0.7-0.4 0.2-1 0.2-0.4 0-0.7-0.1-0.4 0-0.6-0.2-0.3-0.2-0.4-0.5-0.2-0.3-0.2-0.7 0-0.6 0.3-1 0.4-0.3 0.9-0.5 0.4-0.2 1-0.2 0.6-0.1 1-0.1h0.4v-0.1q0-0.6-0.4-0.9-0.3-0.3-0.9-0.3-0.4 0-0.8 0.2-0.4 0.1-0.7 0.4m1.9 1.4q-0.8 0-1.3 0.3-0.5 0.2-0.5 0.7 0 0.5 0.4 0.7 0.3 0.2 0.8 0.2 0.3 0 0.6-0.1 0.3-0.1 0.5-0.3 0.2-0.2 0.3-0.5 0.1-0.3 0.1-0.6v-0.4z"/>
		<path id="path20" class="s1" d="m92.8 85.4q0.3 0.3 0.6 0.5 0.3 0.2 0.7 0.2 0.2 0 0.4-0.1 0.2 0 0.4-0.1 0.2-0.1 0.3-0.3 0.1-0.1 0.1-0.3 0-0.2-0.1-0.4-0.1-0.1-0.3-0.2-0.1-0.1-0.3-0.2-0.2 0-0.4-0.1-0.4 0-0.7-0.1-0.3-0.1-0.6-0.3-0.2-0.1-0.4-0.4-0.1-0.2-0.1-0.6 0-0.4 0.1-0.7 0.2-0.3 0.5-0.5 0.2-0.2 0.6-0.3 0.3-0.1 0.7-0.1 0.5 0 1 0.3 0.5 0.2 0.7 0.7l-0.7 0.4q-0.1-0.2-0.4-0.4-0.3-0.2-0.7-0.2-0.1 0-0.3 0.1-0.2 0-0.4 0.1-0.1 0.1-0.2 0.2-0.1 0.2-0.1 0.3 0 0.2 0.1 0.3 0.1 0.1 0.3 0.2 0.2 0.1 0.4 0.2 0.3 0 0.5 0.1 0.4 0.1 0.7 0.2 0.3 0.1 0.5 0.2 0.2 0.2 0.4 0.5 0.1 0.2 0.1 0.6 0 0.5-0.2 0.8-0.2 0.3-0.4 0.5-0.3 0.2-0.7 0.3-0.4 0-0.8 0-0.6 0-1.1-0.2-0.5-0.2-0.9-0.7"/>
		<path id="path21" class="s1" d="m105.1 85.8q-0.5 0.6-1.1 0.8-0.5 0.2-1.2 0.2-0.6 0-1.1-0.2-0.5-0.2-0.8-0.5-0.4-0.4-0.6-0.9-0.1-0.5-0.1-1.1 0-0.6 0.2-1.1 0.2-0.5 0.5-0.8 0.4-0.4 0.8-0.6 0.5-0.2 1.1-0.2 0.5 0 1 0.2 0.4 0.2 0.8 0.5 0.3 0.4 0.5 0.9 0.1 0.5 0.1 1.1v0.3h-4.1q0 0.3 0.1 0.6 0.2 0.3 0.4 0.6 0.2 0.2 0.5 0.3 0.3 0.2 0.7 0.2 0.5 0 0.9-0.2 0.4-0.2 0.7-0.6m-0.1-1.6q0-0.7-0.4-1.1-0.4-0.4-1.1-0.4-0.7 0-1.2 0.4-0.4 0.4-0.5 1.1z"/>
		<path id="path22" class="s1" d="m109.6 78.9h3q0.4 0 0.8 0.1 0.5 0.1 0.9 0.3 0.4 0.2 0.8 0.5 0.4 0.3 0.7 0.7 0.3 0.5 0.5 1 0.2 0.6 0.2 1.3 0 0.7-0.2 1.3-0.2 0.6-0.5 1-0.3 0.4-0.7 0.7-0.4 0.4-0.8 0.5-0.4 0.2-0.9 0.3-0.4 0.1-0.8 0.1h-3m1-0.8h1.7q0.7 0 1.3-0.2 0.5-0.2 1-0.6 0.4-0.3 0.6-0.9 0.3-0.6 0.3-1.4 0-0.8-0.3-1.4-0.2-0.5-0.6-0.9-0.5-0.4-1-0.5-0.6-0.2-1.3-0.2h-1.7z"/>
		<path id="path23" class="s1" d="m122.4 85.8q-0.5 0.6-1 0.8-0.6 0.2-1.3 0.2-0.6 0-1.1-0.2-0.5-0.2-0.8-0.5-0.3-0.4-0.5-0.9-0.2-0.5-0.2-1.1 0-0.6 0.2-1.1 0.2-0.5 0.5-0.8 0.4-0.4 0.9-0.6 0.5-0.2 1-0.2 0.6 0 1 0.2 0.5 0.2 0.8 0.5 0.3 0.4 0.5 0.9 0.2 0.5 0.2 1.1v0.3h-4.2q0 0.3 0.2 0.6 0.1 0.3 0.3 0.6 0.2 0.2 0.5 0.3 0.3 0.2 0.7 0.2 0.6 0 0.9-0.2 0.4-0.2 0.7-0.6m-0.1-1.6q0-0.7-0.4-1.1-0.4-0.4-1.1-0.4-0.7 0-1.2 0.4-0.4 0.4-0.5 1.1z"/>
		<path id="path24" class="s1" d="m124 85.4q0.3 0.3 0.6 0.5 0.3 0.2 0.7 0.2 0.2 0 0.4-0.1 0.2 0 0.4-0.1 0.2-0.1 0.3-0.3 0.1-0.1 0.1-0.3 0-0.2-0.1-0.4-0.1-0.1-0.3-0.2-0.1-0.1-0.3-0.2-0.2 0-0.4-0.1-0.4 0-0.7-0.1-0.4-0.1-0.6-0.3-0.3-0.1-0.4-0.4-0.2-0.2-0.2-0.6 0-0.4 0.2-0.7 0.2-0.3 0.5-0.5 0.2-0.2 0.6-0.3 0.3-0.1 0.7-0.1 0.5 0 1 0.3 0.5 0.2 0.7 0.7l-0.7 0.4q-0.2-0.2-0.4-0.4-0.3-0.2-0.7-0.2-0.2 0-0.3 0.1-0.2 0-0.4 0.1-0.1 0.1-0.2 0.2-0.1 0.2-0.1 0.3 0 0.2 0.1 0.3 0.1 0.1 0.3 0.2 0.2 0.1 0.4 0.2 0.3 0 0.5 0.1 0.3 0.1 0.7 0.2 0.3 0.1 0.5 0.2 0.2 0.2 0.4 0.5 0.1 0.2 0.1 0.6 0 0.5-0.2 0.8-0.2 0.3-0.5 0.5-0.2 0.2-0.6 0.3-0.4 0-0.8 0-0.6 0-1.1-0.2-0.5-0.2-0.9-0.7"/>
		<path id="path25" class="s1" d="m133.2 85.8q-0.5 0.6-1 0.8-0.6 0.2-1.3 0.2-0.6 0-1.1-0.2-0.5-0.2-0.8-0.5-0.3-0.4-0.5-0.9-0.2-0.5-0.2-1.1 0-0.6 0.2-1.1 0.2-0.5 0.5-0.8 0.4-0.4 0.9-0.6 0.5-0.2 1-0.2 0.6 0 1 0.2 0.5 0.2 0.8 0.5 0.3 0.4 0.5 0.9 0.2 0.5 0.2 1.1v0.3h-4.2q0 0.3 0.2 0.6 0.1 0.3 0.3 0.6 0.3 0.2 0.6 0.3 0.2 0.2 0.6 0.2 0.6 0 0.9-0.2 0.4-0.2 0.7-0.6m0-1.6q-0.1-0.7-0.5-1.1-0.4-0.4-1.1-0.4-0.7 0-1.2 0.4-0.4 0.4-0.5 1.1z"/>
		<path id="path26" class="s1" d="m134.7 82.8q0-0.4 0-0.7 0-0.3 0-0.5h0.8q0 0.2 0 0.4 0 0.2 0 0.4 0.1-0.2 0.3-0.3 0.1-0.2 0.3-0.4 0.3-0.1 0.5-0.2 0.3-0.1 0.6-0.1 0.5 0 0.9 0.2 0.4 0.1 0.6 0.4 0.3 0.3 0.4 0.7 0.1 0.4 0.1 0.8v3.2h-0.9v-3.1q0-0.6-0.2-1-0.3-0.4-0.9-0.4-0.5 0-0.8 0.2-0.3 0.1-0.5 0.4-0.1 0.2-0.2 0.6-0.1 0.4-0.1 0.8v2.5h-0.9"/>
		<path id="path27" class="s1" d="m143.2 86.7h-1l-2.1-5.1h1l1.6 4 1.6-4h0.9"/>
		<path id="path28" class="s1" d="m145.8 84.1q0-0.6 0.2-1.1 0.2-0.5 0.6-0.8 0.4-0.4 0.9-0.6 0.5-0.2 1.1-0.2 0.6 0 1.1 0.2 0.5 0.2 0.9 0.6 0.3 0.3 0.5 0.8 0.2 0.5 0.2 1.1 0 0.6-0.2 1.1-0.2 0.5-0.5 0.9-0.4 0.4-0.9 0.6-0.5 0.1-1.1 0.1-0.6 0-1.1-0.1-0.5-0.2-0.9-0.6-0.4-0.4-0.6-0.9-0.2-0.5-0.2-1.1zm1 0q0 0.5 0.1 0.8 0.1 0.3 0.3 0.6 0.3 0.3 0.6 0.4 0.4 0.2 0.8 0.2 0.4 0 0.7-0.2 0.4-0.1 0.6-0.4 0.3-0.3 0.4-0.6 0.1-0.3 0.1-0.8 0-0.4-0.1-0.7-0.1-0.4-0.4-0.6-0.2-0.3-0.6-0.4-0.3-0.2-0.7-0.2-0.4 0-0.8 0.2-0.3 0.1-0.6 0.4-0.2 0.2-0.3 0.6-0.1 0.3-0.1 0.7z"/>
		<path id="path29" class="s1" d="m152.7 86.7h0.9v-8.3h-0.9z"/>
		<path id="path30" class="s1" d="m157.6 86.7h-0.9l-2.1-5.1h1l1.6 4 1.6-4h0.9"/>
		<path id="path31" class="s1" d="m160.7 81.6h0.8v5.1h-0.8zm-0.2-2q0-0.3 0.2-0.4 0.1-0.2 0.4-0.2 0.3 0 0.5 0.2 0.1 0.1 0.1 0.4 0 0.3-0.1 0.5-0.2 0.1-0.5 0.1-0.3 0-0.4-0.1-0.2-0.2-0.2-0.5z"/>
		<path id="path32" class="s1" d="m163.2 82.8q0-0.4 0-0.7 0-0.3 0-0.5h0.8q0 0.2 0 0.4 0 0.2 0 0.4h0.1q0-0.2 0.2-0.3 0.2-0.2 0.4-0.4 0.2-0.1 0.5-0.2 0.3-0.1 0.6-0.1 0.4 0 0.7 0.1 0.3 0.1 0.4 0.3 0.2 0.1 0.3 0.3 0.1 0.2 0.2 0.3 0.3-0.4 0.7-0.7 0.3-0.3 0.9-0.3 0.6 0 1 0.2 0.3 0.1 0.6 0.4 0.2 0.3 0.3 0.7 0.1 0.4 0.1 0.9v3.1h-0.9v-3.1q0-0.2 0-0.5-0.1-0.2-0.2-0.4-0.2-0.2-0.4-0.4-0.2-0.1-0.6-0.1-0.3 0-0.5 0.1-0.3 0.1-0.5 0.3-0.1 0.2-0.2 0.5-0.2 0.3-0.2 0.6v3h-0.8v-2.9q0-0.9-0.2-1.2-0.3-0.4-0.8-0.4-0.4 0-0.7 0.2-0.3 0.1-0.5 0.4-0.2 0.2-0.3 0.6-0.1 0.4-0.1 0.8v2.5h-0.9"/>
		<path id="path33" class="s1" d="m177.2 85.8q-0.4 0.6-1 0.8-0.5 0.2-1.3 0.2-0.6 0-1.1-0.2-0.4-0.2-0.8-0.5-0.3-0.4-0.5-0.9-0.2-0.5-0.2-1.1 0-0.6 0.2-1.1 0.2-0.5 0.6-0.8 0.3-0.4 0.8-0.6 0.5-0.2 1.1-0.2 0.5 0 1 0.2 0.4 0.2 0.7 0.5 0.4 0.4 0.5 0.9 0.2 0.5 0.2 1.1v0.3h-4.2q0.1 0.3 0.2 0.6 0.1 0.3 0.4 0.6 0.2 0.2 0.5 0.3 0.3 0.2 0.6 0.2 0.6 0 1-0.2 0.4-0.2 0.7-0.6m-0.1-1.6q0-0.7-0.4-1.1-0.5-0.4-1.2-0.4-0.7 0-1.1 0.4-0.5 0.4-0.6 1.1z"/>
		<path id="path34" class="s1" d="m178.7 82.8q0-0.4 0-0.7 0-0.3 0-0.5h0.8q0 0.2 0 0.4 0 0.2 0 0.4h0.1q0-0.2 0.2-0.3 0.2-0.2 0.4-0.4 0.2-0.1 0.5-0.2 0.2-0.1 0.6-0.1 0.5 0 0.8 0.2 0.4 0.1 0.7 0.4 0.2 0.3 0.3 0.7 0.1 0.4 0.1 0.8v3.2h-0.8v-3.1q0-0.6-0.3-1-0.3-0.4-0.9-0.4-0.4 0-0.7 0.2-0.3 0.1-0.5 0.4-0.2 0.2-0.3 0.6-0.1 0.4-0.1 0.8v2.5h-0.9"/>
		<path id="path35" class="s1" d="m187.7 82.3h-1.5v2.6q0 0.2 0 0.4 0 0.2 0.1 0.4 0 0.2 0.2 0.3 0.1 0.1 0.4 0.1 0.2 0 0.4-0.1 0.2 0 0.4-0.1v0.8q-0.2 0.1-0.5 0.1-0.2 0-0.5 0-0.4 0-0.7-0.1-0.3-0.1-0.5-0.3-0.1-0.2-0.2-0.6 0-0.3 0-0.7v-2.8h-1.1v-0.7h1.1v-1.5h0.9v1.5h1.5"/>
		<path id="path36" class="s1" d="m188.4 84.1q0-0.6 0.2-1.1 0.2-0.5 0.6-0.8 0.4-0.4 0.9-0.6 0.5-0.2 1.1-0.2 0.6 0 1.1 0.2 0.5 0.2 0.9 0.6 0.3 0.3 0.5 0.8 0.2 0.5 0.2 1.1 0 0.6-0.2 1.1-0.2 0.5-0.5 0.9-0.4 0.4-0.9 0.6-0.5 0.1-1.1 0.1-0.6 0-1.1-0.1-0.5-0.2-0.9-0.6-0.4-0.4-0.6-0.9-0.2-0.5-0.2-1.1zm1 0q0 0.5 0.1 0.8 0.1 0.3 0.3 0.6 0.3 0.3 0.6 0.4 0.4 0.2 0.8 0.2 0.4 0 0.7-0.2 0.4-0.1 0.6-0.4 0.3-0.3 0.4-0.6 0.1-0.3 0.1-0.8 0-0.4-0.1-0.7-0.1-0.4-0.4-0.6-0.2-0.3-0.6-0.4-0.3-0.2-0.7-0.2-0.4 0-0.8 0.2-0.3 0.1-0.6 0.4-0.2 0.2-0.3 0.6-0.1 0.3-0.1 0.7z"/>
		<path id="path37" class="s2" d="m102.2 41.4h22.3v-2.2h-22.3z"/>
		<path id="path38" class="s0" d="m66.2 41.4h-12.5v31.9h-2.5v-31.9h-12.4v-2.2h27.4"/>
		<path id="path39" class="s0" d="m71.4 73.3v-34.1h14.2q2.1 0 4 0.9 1.8 1 3.1 2.5 1.3 1.5 2.1 3.4 0.7 1.9 0.7 3.8 0 1.9-0.6 3.6-0.5 1.8-1.6 3.2-1.1 1.3-2.5 2.3-1.5 0.9-3.3 1.2l8.5 13.2h-2.8l-8.3-12.9h-11v12.9m0-15.1h11.9q1.6 0 3-0.7 1.3-0.8 2.3-1.9 0.9-1.2 1.5-2.7 0.5-1.5 0.5-3.1 0-1.6-0.6-3.2-0.6-1.5-1.7-2.6-1-1.2-2.4-1.9-1.3-0.7-2.9-0.7h-11.6z"/>
		<path id="path40" class="s0" d="m130.8 39.2l12.9 31 13-31h2.6l-14.4 34.1h-2.3l-14.4-34.1"/>
		<path id="path41" class="s0" d="m176.8 73.5q-3.5 0-6.5-1.5-2.9-1.4-5-3.8-2.1-2.4-3.3-5.6-1.1-3.1-1.1-6.3 0-3.4 1.2-6.6 1.2-3.1 3.4-5.5 2.1-2.4 5-3.8 3-1.4 6.4-1.4 3.5 0 6.5 1.5 2.9 1.5 5 4 2.1 2.4 3.2 5.5 1.2 3.1 1.2 6.3 0 3.4-1.2 6.5-1.3 3.2-3.4 5.5-2.1 2.4-5.1 3.8-2.9 1.4-6.3 1.4zm-13.5-17.2q0 2.9 1 5.6 1 2.7 2.8 4.8 1.8 2.1 4.3 3.3 2.5 1.3 5.5 1.3 3 0 5.5-1.3 2.5-1.3 4.2-3.4 1.8-2.2 2.7-4.9 1-2.7 1-5.4 0-3-1-5.7-1-2.7-2.8-4.8-1.8-2.1-4.3-3.3-2.4-1.2-5.3-1.2-3.1 0-5.6 1.2-2.5 1.3-4.3 3.5-1.8 2.1-2.7 4.8-1 2.7-1 5.5z"/>
		<path id="path42" class="s2" d="m102.2 73.3h22.3v-2.2h-22.3z"/>
		<path id="path43" class="s2" d="m102.2 57.4h16.3v-2.2h-16.3z"/>
	</g>
</svg>